<svg xmlns="http://www.w3.org/2000/svg"
     viewBox="0 0 1700 1700">
  <path id="Ring"
        fill="#ffffff"
        d="M 260.71,723.00
           C 260.71,723.00 289.42,763.00 289.42,763.00
             289.42,763.00 304.28,784.00 304.28,784.00
             306.28,786.86 310.60,792.88 311.49,796.00
             311.49,796.00 310.00,825.00 310.00,825.00
             310.00,825.00 310.00,874.00 310.00,874.00
             310.02,887.39 313.29,916.27 315.42,930.00
             326.42,1000.82 350.36,1069.74 387.81,1131.00
             422.49,1187.72 467.30,1238.73 520.00,1279.35
             542.75,1296.88 566.72,1313.02 592.00,1326.69
             592.00,1326.69 616.00,1339.14 616.00,1339.14
             619.10,1340.52 631.18,1346.82 633.61,1347.70
             635.91,1352.09 645.49,1370.46 648.25,1376.00
             648.25,1376.00 671.86,1428.00 671.86,1428.00
             675.19,1435.53 682.31,1452.44 684.81,1459.44
             619.43,1440.34 567.53,1418.31 510.00,1381.25
             388.43,1302.94 293.48,1180.28 250.50,1042.00
             238.77,1004.25 230.83,970.18 225.72,931.00
             225.72,931.00 221.91,889.00 221.91,889.00
             221.91,889.00 221.50,876.88 221.50,876.88
             221.50,876.88 221.69,822.00 221.69,822.00
             221.69,822.00 221.96,811.00 221.96,811.00
             222.94,788.52 225.86,766.21 229.59,744.00
             231.55,732.33 237.09,706.48 240.00,696.00
             240.00,696.00 260.71,723.00 260.71,723.00 Z
           M 1472.40,727.00
           C 1477.92,754.63 1481.81,782.89 1483.04,811.00
             1483.04,811.00 1484.00,822.00 1484.00,822.00
             1484.00,822.00 1484.00,877.00 1484.00,877.00
             1484.00,877.00 1483.04,890.00 1483.04,890.00
             1481.53,924.55 1476.09,959.27 1468.35,993.00
             1430.05,1159.88 1324.85,1304.29 1178.00,1392.40
             1141.39,1414.36 1107.04,1430.41 1067.00,1445.05
             1055.21,1449.36 1022.88,1459.25 1011.00,1462.00
             1020.38,1436.63 1031.82,1411.73 1042.58,1387.00
             1042.58,1387.00 1051.75,1367.50 1051.75,1367.50
             1054.02,1362.67 1056.88,1356.50 1058.63,1353.50
             1061.38,1352.38 1066.11,1349.55 1069.00,1348.23
             1069.00,1348.23 1094.00,1336.75 1094.00,1336.75
             1117.66,1325.00 1140.11,1311.08 1162.00,1296.33
             1222.93,1255.26 1280.79,1192.08 1318.40,1129.00
             1353.39,1070.30 1376.92,1006.43 1388.08,939.00
             1388.08,939.00 1394.09,886.00 1394.09,886.00
             1394.09,886.00 1395.00,874.00 1395.00,874.00
             1395.00,874.00 1395.00,827.00 1395.00,827.00
             1395.00,827.00 1392.67,798.00 1392.67,798.00
             1392.62,794.37 1392.52,790.06 1392.56,786.56
             1394.65,783.38 1396.79,779.10 1399.00,776.00
             1399.00,776.00 1413.63,756.00 1413.63,756.00
             1413.63,756.00 1463.00,691.00 1463.00,691.00
             1466.13,699.13 1470.81,719.04 1472.40,727.00 Z
           M 412.75,397.50
           C 412.75,397.50 520.22,408.57 534.70,409.30
             725.33,276.00 963.33,269.33 1168.03,407.81
             1184.18,406.00 1290.09,395.50 1290.09,395.50
             1059.33,167.33 662.67,155.33 412.75,397.50 Z
           M 0.00,0.00M 1700.00,1700.00" />
</svg>
